#!OML:ASF F:\twosubjects\two\Thursday\Session 1\Rory.ASF
:FULLY-SPECIFIED
:DEGREES
294
root 17.9793 12.8597 9.93558 -52.7868 -81.6715 13.866
lowerback 18.8937 2.50594 1.0404
upperback 15.2645 2.30695 -1.01637
thorax 6.13782 0.805245 -2.02593
lowerneck -4.056 -6.76788 -8.78778
upperneck 13.3363 -9.96895 9.8926
head 5.609 -4.80822 3.87129
rclavicle 7.17488e-015 -8.74653e-015
rhumerus 16.9601 -2.90812 -92.1753
rradius 53.4124
rwrist -39.3446
rhand -0.727988 17.1302
rfingers 7.12502
rthumb 24.8929 -11.2689
lclavicle 7.17488e-015 -8.74653e-015
lhumerus -16.5929 -26.5588 92.2323
lradius 67.2405
lwrist -14.5451
lhand 0.897204 33.5978
lfingers 7.12502
lthumb 26.4495 61.7722
rfemur -23.287 4.14159 0.854451
rtibia 37.0124
rfoot 15.656 -26.3328
rtoes 33.2874
lfemur -21.3668 -4.75663 -8.92548
ltibia 29.2881
lfoot 28.7601 4.80647
ltoes 9.46797
295
root 17.9869 12.8696 9.92642 -51.7252 -81.6548 12.7471
lowerback 18.8852 2.57739 1.04559
upperback 15.2792 2.40201 -0.89131
thorax 6.15687 0.848221 -1.90624
lowerneck -4.26932 -6.84368 -8.43741
upperneck 13.573 -10.0599 9.5523
head 5.69358 -4.84629 3.69076
rclavicle -4.9808e-014 -4.53229e-014
rhumerus 17.6653 -3.73666 -92.819
rradius 52.5302
rwrist -38.3531
rhand 3.65571 15.3891
rfingers 7.12502
rthumb 29.0869 -12.3597
lclavicle -4.9808e-014 -4.53229e-014
lhumerus -16.5129 -26.6614 92.405
lradius 67.1426
lwrist -14.582
lhand 1.41901 33.3769
lfingers 7.12502
lthumb 26.9488 61.4752
rfemur -23.2185 4.0272 1.02106
rtibia 37.0056
rfoot 16.1456 -26.3515
rtoes 33.3684
lfemur -21.3644 -4.74827 -8.80368
ltibia 29.3434
lfoot 28.7281 4.85526
ltoes 10.3107
296
root 17.9855 12.8708 9.91813 -51.0747 -81.5961 12.0961
lowerback 18.7961 2.61303 0.997048
upperback 15.2883 2.446 -0.869824
thorax 6.21079 0.86692 -1.85868
lowerneck -4.46702 -6.77626 -8.41245
upperneck 13.8336 -9.99461 9.62873
head 5.80476 -4.80145 3.70836
rclavicle 4.19933e-015 4.01545e-014
rhumerus 18.4177 -4.49772 -93.8052
rradius 51.5989
rwrist -36.7617
rhand -3.55543 16.9515
rfingers 7.12502
rthumb 22.1808 -11.7959
lclavicle 4.19933e-015 4.01545e-014
lhumerus -16.4052 -26.6774 92.348
lradius 67.0823
lwrist -14.6157
lhand 1.9214 33.1645
lfingers 7.12502
lthumb 27.4294 61.1876
rfemur -23.1499 4.0574 1.065
rtibia 37.024
rfoot 16.1617 -26.2879
rtoes 33.3053
lfemur -21.3762 -4.76217 -8.73034
ltibia 29.3823
lfoot 28.6695 5.23022
ltoes 11.4015
297
root 17.9781 12.8593 9.92134 -51.0277 -81.5594 12.0792
lowerback 18.7976 2.6311 0.994933
upperback 15.2534 2.47472 -0.873539
thorax 6.17079 0.883401 -1.86524
lowerneck -4.45027 -6.76053 -8.4408
upperneck 13.7926 -9.98439 9.73333
head 5.79467 -4.79281 3.74778
rclavicle -3.99744e-014 5.24792e-014
rhumerus 19.0292 -4.54893 -94.3544
rradius 50.8892
rwrist -35.2772
rhand -5.10325 16.4504
rfingers 7.12502
rthumb 20.6942 -12.4662
lclavicle -3.99744e-014 5.24792e-014
lhumerus -16.2519 -26.7274 92.2654
lradius 66.9859
lwrist -14.5952
lhand 2.17405 33.064
lfingers 7.12502
lthumb 27.671 61.0486
rfemur -23.2115 4.10324 1.01351
rtibia 37.051
rfoot 16.1396 -26.3354
rtoes 32.2038
lfemur -21.4278 -4.87726 -8.71469
ltibia 29.3731
lfoot 28.6289 5.56574
ltoes 11.3746
298
root 17.9792 12.8583 9.92563 -50.9939 -81.5543 12.0143
lowerback 18.8443 2.69965 1.00427
upperback 15.2326 2.56863 -0.812189
thorax 6.12412 0.929771 -1.81807
lowerneck -4.35362 -6.83541 -8.47514
upperneck 13.7307 -10.0999 9.82077
head 5.77609 -4.84944 3.77453
rclavicle -2.94574e-014 1.47101e-014
rhumerus 19.6874 -4.95082 -94.8581
rradius 50.3058
rwrist -34.339
rhand 10.4104 8.45851
rfingers 7.12502
rthumb 35.5155 -17.9756
lclavicle -2.94574e-014 1.47101e-014
lhumerus -16.1801 -26.9851 92.3363
lradius 66.9013
lwrist -14.5394
lhand 2.12493 33.3356
lfingers 7.12502
lthumb 27.6241 61.3277
rfemur -23.2189 3.96651 1.03792
rtibia 37.0542
rfoot 16.2624 -26.2086
rtoes 30.8762
lfemur -21.4345 -4.87554 -8.74286
ltibia 29.3701
lfoot 28.6749 5.09105
ltoes 9.78154
299
root 17.9797 12.8593 9.92546 -51.0967 -81.4849 12.0967
lowerback 18.7737 2.78789 0.985178
upperback 15.2681 2.68411 -0.824011
thorax 6.20592 0.988649 -1.83186
lowerneck -4.25939 -6.91909 -8.47065
upperneck 13.6727 -10.2553 10.048
head 5.76821 -4.91623 3.83578
rclavicle -2.72087e-014 2.46493e-014
rhumerus 20.4159 -5.52311 -95.4014
rradius 49.6785
rwrist -33.7281
rhand 23.196 0.76512
rfingers 7.12502
rthumb 47.4999 -21.6777
lclavicle -2.72087e-014 2.46493e-014
lhumerus -16.0504 -27.3234 92.324
lradius 66.7815
lwrist -14.3698
lhand 1.98365 33.6123
lfingers 7.12502
lthumb 27.4889 61.6259
rfemur -23.1458 3.84484 0.983407
rtibia 37.0508
rfoot 16.2819 -25.8506
rtoes 30.83
lfemur -21.4604 -4.83403 -8.8386
ltibia 29.4137
lfoot 28.7565 4.68488
ltoes 9.28969
300
root 17.9882 12.8682 9.92459 -51.0119 -81.4621 12.036
lowerback 18.7036 2.82556 1.02965
upperback 15.2505 2.74675 -0.885154
thorax 6.23078 1.03041 -1.9276
lowerneck -4.34357 -6.98552 -8.23589
upperneck 13.8466 -10.3764 9.99692
head 5.83381 -4.96341 3.76721
rclavicle -5.57529e-014 4.37326e-014
rhumerus 20.9473 -5.3969 -95.7052
rradius 48.97
rwrist -32.9628
rhand 22.49 -0.92358
rfingers 7.12502
rthumb 46.8472 -23.6568
lclavicle -5.57529e-014 4.37326e-014
lhumerus -15.9835 -27.4595 92.235
lradius 66.6727
lwrist -14.2264
lhand 2.03944 33.3501
lfingers 7.12502
lthumb 27.5423 61.3552
rfemur -23.1633 3.82123 0.980338
rtibia 36.9868
rfoot 16.6364 -25.7729
rtoes 30.8828
lfemur -21.4468 -4.69802 -8.90836
ltibia 29.3295
lfoot 28.914 4.5925
ltoes 9.6455
301
root 17.9874 12.8732 9.92398 -50.2882 -81.4917 11.313
lowerback 18.5405 2.79879 1.07269
upperback 15.2685 2.72028 -0.90095
thorax 6.33744 1.02333 -1.95932
lowerneck -4.44389 -7.01114 -7.89988
upperneck 13.9869 -10.4185 9.77824
head 5.86992 -4.97617 3.63588
rclavicle -3.96451e-014 1.63003e-014
rhumerus 21.5595 -5.31131 -96.3035
rradius 48.2749
rwrist -32.3395
rhand 20.9133 -2.41881
rfingers 7.12502
rthumb 45.3849 -25.7651
lclavicle -3.96451e-014 1.63003e-014
lhumerus -15.9496 -27.3916 92.1457
lradius 66.589
lwrist -14.28
lhand 2.0809 33.1755
lfingers 7.12502
lthumb 27.582 61.1743
rfemur -23.1649 3.73663 1.10366
rtibia 36.9444
rfoot 16.9189 -25.8284
rtoes 30.0256
lfemur -21.4605 -4.33912 -8.9802
ltibia 29.2451
lfoot 29.2316 2.8655
ltoes 4.02718
302
root 17.9854 12.8783 9.9206 -49.0816 -81.5025 10.0876
lowerback 18.3962 2.7958 1.2463
upperback 15.3122 2.74024 -0.887136
thorax 6.4733 1.05007 -2.03817
lowerneck -4.30173 -7.04349 -7.87207
upperneck 13.798 -10.4909 9.98875
head 5.80284 -5.00505 3.69789
rclavicle -2.62768e-014 2.70347e-014
rhumerus 22.3141 -5.64275 -96.8709
rradius 47.691
rwrist -32.2119
rhand 19.3689 -3.45853
rfingers 7.12502
rthumb 43.9467 -27.3612
lclavicle -2.62768e-014 2.70347e-014
lhumerus -15.769 -27.6336 92.0893
lradius 66.3728
lwrist -14.3053
lhand 1.95104 33.213
lfingers 7.12502
lthumb 27.4578 61.2316
rfemur -23.0112 3.52944 1.28992
rtibia 36.8028
rfoot 17.1217 -25.758
rtoes 28.7298
lfemur -21.4355 -4.75784 -8.66888
ltibia 29.2389
lfoot 28.6385 4.87668
ltoes 9.12318
